<svg xmlns="http://www.w3.org/2000/svg" width="180" height="45" viewBox="0 0 180 45"><defs><style>.cls-2{fill:#5a5b5e}.cls-3{fill:#006a76}</style></defs><g id="header-logo-color"><path id="area" fill="none" d="M0 0h180v45H0z"/><g id="그룹_4"><g id="그룹_2" transform="translate(45.295 11.992)"><path id="패스_17" d="M353.906 507.829c-3.544 0-6.416 2.189-6.416 4.887s2.872 4.884 6.416 4.884 6.462-2.185 6.462-4.884-2.918-4.887-6.462-4.887zm.066 7.654c-1.809 0-3.522-1.221-3.522-2.767s1.714-2.777 3.522-2.777 3.434 1.23 3.434 2.777-1.627 2.767-3.434 2.767z" class="cls-2" transform="translate(-273.458 -495.394)"/><path id="패스_18" d="M352.765 495.037a5.882 5.882 0 10-5.857 5.872 5.845 5.845 0 005.857-5.872zm-8.8.009c0-2.042 1.382-3.763 2.937-3.763s2.898 1.717 2.898 3.763-1.351 3.746-2.907 3.746-2.933-1.706-2.933-3.746z" class="cls-2" transform="translate(-271.234 -489.001)"/><path id="패스_19" d="M365.17 488.935h-3.663v.473s.7-.034.7 1.375v9.953h2.962v-5.429h2.99v-2.073h-2.99z" class="cls-2" transform="translate(-278.26 -488.921)"/><path id="패스_20" d="M390.59 507.829c-3.545 0-6.418 2.189-6.418 4.887s2.873 4.884 6.418 4.884 6.42-2.185 6.42-4.884-2.876-4.887-6.42-4.887zm.063 7.654c-1.807 0-3.521-1.221-3.521-2.767s1.714-2.777 3.521-2.777 3.4 1.23 3.4 2.777-1.589 2.767-3.4 2.767z" class="cls-2" transform="translate(-286.025 -495.394)"/><path id="패스_21" d="M391.286 489.419s.7-.03.7 1.373v1.653h-3.7v-2.987h-3.666v.473s.7-.018.7 1.357v1.412h-4.62v-3.246h-3.664v.472s.7-.019.7 1.353v8.98h10.554v-1.611h3.7v3.175h2.962v-12.88h-3.666zm-5.957 8.771H380.7v-3.415h4.634zm6.66-1.612h-3.7v-2.059h3.7z" class="cls-2" transform="translate(-283.579 -488.924)"/><path id="패스_22" d="M432.892 505.906h2.962v-16.992h-3.665v.481s.7-.041.7 1.393v4.679h-2.866v2.073h2.866z" class="cls-2" transform="translate(-301.734 -488.914)"/><path id="패스_23" d="M418.1 511.193h2.961v-4.353h3.8v-2.074h-13.486v2.074h6.725z" class="cls-2" transform="translate(-295.345 -494.345)"/><path id="패스_24" d="M418.05 516.23v-4.625h-3.664v.479s.7-.05.7 1.387v5H430.5v-2.241z" class="cls-2" transform="translate(-296.376 -496.688)"/><path id="패스_25" d="M413.82 497.078a6.8 6.8 0 008.071 0 3.938 3.938 0 000-6.436 6.792 6.792 0 00-8.071 0 3.913 3.913 0 000 6.436zm4.028-5.648a2.448 2.448 0 11-2.753 2.429 2.639 2.639 0 012.753-2.429z" class="cls-2" transform="translate(-295.604 -489.051)"/><path id="패스_26" d="M277.264 510.358H273.6v.473s.7-.024.7 1.375v5.866h14.419v-2.255h-11.46z" class="cls-2" transform="translate(-248.143 -496.261)"/><path id="패스_27" d="M294.01 488.943h-3.664v.476s.7-.019.7 1.373v12.838h2.962v-8.32h2.984v-2.073h-2.982z" class="cls-2" transform="translate(-253.88 -488.924)"/><path id="패스_28" d="M275.538 497.582a16.232 16.232 0 014.65 4.395l2.222-2.179a13.123 13.123 0 00-5.817-3.977 13.715 13.715 0 001.39-6.093h-4.39v.472s.838-.023.838 1.81c0 3.147-2.413 6.585-5.3 8.285l1.407 1.493a13.558 13.558 0 005-4.206z" class="cls-2" transform="translate(-246.611 -489.193)"/><path id="패스_29" d="M255.369 489.419s.7-.022.7 1.373v3.936h-4.679v2.072h4.679v13.941h2.962v-21.8h-3.665z" class="cls-2" transform="translate(-240.535 -488.924)"/><path id="패스_30" d="M242.5 497.564a21.6 21.6 0 001.225-7.874h-4.38v.474s.827-.03.827 1.713c0 5.261-1.968 8.781-5.293 11.107l1.384 1.494a13.638 13.638 0 005.215-4.841 13.869 13.869 0 014.283 5.266l2.239-2.274a11 11 0 00-5.5-5.065z" class="cls-2" transform="translate(-234.876 -489.18)"/><path id="패스_31" d="M306.488 505.15h7.983v1.121c-2.813.517-4.909 2.442-4.909 4.743 0 2.7 2.875 4.9 6.421 4.9s6.417-2.2 6.417-4.9c0-2.317-2.122-4.253-4.966-4.756v-1.108h7.916v-2.25h-18.862zm12.951 5.864c0 1.546-1.586 2.768-3.4 2.768s-3.521-1.222-3.521-2.768 1.714-2.768 3.521-2.768 3.4 1.223 3.4 2.768z" class="cls-2" transform="translate(-259.41 -493.705)"/><path id="패스_32" d="M307.423 496.086l1.428 1.564a18.614 18.614 0 007.155-3.116 14.764 14.764 0 016.537 3.14l2.4-2.251c-2.215-1.607-5.813-2.156-7.487-2.329a6.625 6.625 0 00.945-1.617h5.839V489.4h-15.932v2.075h6.139c-.224.787-1.358 3.152-7.024 4.611z" class="cls-2" transform="translate(-259.731 -489.082)"/></g><g id="그룹_3"><path id="패스_33" d="M197.419 534.538l-.842-.186-.071-.142h-.413l-.1-.157-.157-.113-.187-.1-.213-.085-.171-.3.042-.342.7-.84-.472.128-.527.2-.514.087-.443-.229-.971-.783-.185-.227.828-1.425-.77-.783.485-.484.528-.413.57-.356.614-.313.644-.285.669-.271.685-.271.7-.27 3.638-.84 1.2 1.252-.128.328-.33.256-.4.229-.4.257-2.37 1.238.271.014.286.015.271.057.2.156 1.055 1.2-.327.484-.471.442-.529.426-.571.428-.542.426-.47.456-.359.5-.17.556z" class="cls-3" transform="translate(-175.198 -489.538)"/><path id="패스_34" d="M176.01 506.785l1.112-.613 1.085-.584 1.071-.525 1.041-.484 1.014-.456 1.013-.414 1-.4.984-.369.971-.342.983-.313.972-.313.97-.3.985-.3.985-.285.983-.284 1.014-.285-1.4.2-1.469.243-1.526.271-1.57.313-1.6.342-1.629.355-1.625.37-1.627.386-1.613.4-1.583.4-1.542.384-1.5.385-1.44.37-1.371.356-1.285.313a7.3 7.3 0 01-1.171.275 1.084 1.084 0 01-.411-.205l-.358-.269-.271-.327a1.217 1.217 0 01-.145-.4 2.34 2.34 0 01.3-.46l.429-.441.514-.4.571-.356.613-.343.6-.327.6-.312.555-.328 1.142-.526 1.142-.513 1.141-.484 1.158-.484 1.141-.456 1.158-.44 1.155-.443 1.169-.427 1.171-.413 1.17-.4 1.185-.4 1.2-.385 1.2-.371 1.214-.368 1.226-.372 1.227-.355-1.4.185-1.4.228-1.4.257-1.4.285-1.4.312-1.383.327-1.4.343-1.384.354-1.385.357-1.384.356-1.37.341-1.385.341-1.369.343-1.371.3-1.37.3-1.371.254-.243-.284-.429-.512-.327-.513.028-.3.555-.713.728-.711.885-.684 1.013-.668 1.127-.642 1.227-.627 1.3-.613 1.358-.569 1.368-.554 1.4-.514 1.37-.485 1.34-.441 1.271-.413 1.213-.37 1.113-.313.983-.284-1.239.213-1.27.241-1.287.257-1.283.286-1.3.285-1.27.313-1.27.327-1.227.329-1.213.343-1.171.341-1.127.342-1.072.341-1 .342-.94.342-.843.329-.77.327-.214-.2-.329-.512-.287-.555-.056-.327.3-.314.44-.342.585-.385.7-.427.827-.442.928-.455 1.013-.471 1.085-.47 1.156-.469 1.213-.47 1.256-.455 1.27-.442 1.3-.4 1.283-.383 1.285-.342 1.27-.3-.684.043-.686.043-.685.07-.7.086-.686.085-.7.1-.684.114-.686.114-.684.112-.685.116-.685.128-.671.113-.657.113-.654.114-.645.114a2.218 2.218 0 01-.58.066c-.107-.038-.231-.366-.231-.366l-.158-.356-.07-.371a1.67 1.67 0 01.1-.38 5.385 5.385 0 01.73-.445l.784-.412.813-.412.843-.385.856-.371.886-.37.9-.343.9-.34.914-.327.926-.314.914-.314.929-.3.9-.3.9-.286.885-.284.869-.27-.869.015-.9.085-.912.1-.928.128-.914.126-.912.1-.871.058h-.857l-.628-.215-.3-.454-.014-.5.216-.368.857-.556.941-.512.984-.456 1.043-.44 1.085-.414 1.085-.4 1.1-.4 1.07-.4-.757-.015-.856.029-.9.042-.885.071-.841.058-.742.029-.571-.015s-.3-.055-.34-.076a2.31 2.31 0 01-.217-.182l-.128-.354-.073-.385.014-.257.187-.256.342-.3.486-.326.6-.357.7-.371.786-.384.828-.385.87-.384.886-.358.869-.354.829-.314.8-.3.713-.241.627-.2.5-.141a1.745 1.745 0 01.39-.039 3.036 3.036 0 01.38.2.8.8 0 01.155.269c.013.091.016.327.016.327a2.224 2.224 0 01-.059.44 3.8 3.8 0 01-.569.5l-.728.442-.814.356-.869.327-.885.3-.858.328-.8.371-.7.455.943-.029 1-.057 1.042-.071 1.043-.057h1.003l.985.087.915.17.654.252a.648.648 0 01.137.15 1.419 1.419 0 01.029.509 3.6 3.6 0 01-.221.356l-.571.342-.642.327-.7.314-.726.3-.743.282-.744.271-.712.271-.673.256.728-.073.729-.083.742-.072.742-.085.755-.072.773-.07.755-.057.77-.043.758-.041.77-.014h.757l.742.014.742.041.742.072.714.084.714.129.371.356.243.428.113.456-.027.456-1.021.293-1.029.284-1.041.257-1.028.242-1.043.241-1.053.229-1.043.227-1.042.214-1.056.241-1.042.228-1.042.242-1.028.257-1.042.268-1.012.286-1.028.314-1 .327 1.114-.141 1.141-.172 1.17-.156 1.2-.171 1.226-.156 1.228-.156 1.242-.142 1.256-.128 1.241-.114 1.241-.085 1.229-.043 1.212-.014 1.185.014 1.156.07 1.143.1 1.086.171.285.241.142.285.028.313-.042.328-.586.243-.671.256-.742.27-.756.271-.741.271-.7.241-.644.228-.515.2.742.042h.785l.815-.028h.827l.8.028.757.114.713.228.483.268.2.266.1.392.027.613-1.526.27-1.527.284-1.5.3-1.5.312-1.484.327-1.484.358-1.471.385-1.469.4-1.471.413-1.469.455-1.484.454-1.471.5-1.484.526-1.484.542-1.5.583-1.514.6 1.158-.243 1.354-.269 1.539-.271 1.686-.3 1.784-.286 1.9-.285 1.939-.271 1.983-.241 1.972-.227 1.954-.185 1.911-.156 1.812-.114 1.714-.042h1.584l1.4.07 1.213.142.316.342.357.356.3.4.145.485-.145.2-.2.185-.245.172-.285.142-1.642.256-1.626.256-1.6.285-1.6.285-1.585.313-1.582.314-1.557.342-1.555.355-1.557.386-1.526.383-1.526.428-1.526.427-1.513.47-1.513.483-1.513.511-1.5.543 1.484-.386 1.571-.371 1.64-.369 1.713-.342 1.754-.327 1.786-.3 1.825-.285 1.827-.242 1.828-.227 1.812-.186 1.784-.143 1.74-.1 1.684-.073 1.628-.013 1.556.041 1.455.086.172.442-.028.6-.13.612-.113.5-1.458.2-1.454.214-1.457.227-1.469.243-1.471.256-1.455.285-1.47.3-1.468.341-1.471.371-1.457.4-1.454.442-1.442.469-1.44.512-1.443.569-1.413.613-1.413.655.785-.17.7-.141.629-.129.585-.115.556-.1.542-.114.556-.1.585-.114.486.327.528.441.328.5-.114.484-.5.114-.613.127-.713.141-.8.145-.87.156-.914.171-.943.17-.955.186-.957.184-.942.2-.9.2-.843.214-.771.227-.685.227-.57.243-.456.242-.343-.071-.4-.2-.414-.3-.386-.37-.285-.4-.157-.4.015-.385z" class="cls-3" transform="translate(-165.976 -470.673)"/></g></g></g></svg>