<svg xmlns="http://www.w3.org/2000/svg" width="30" height="30" viewBox="0 0 30 30"><defs><clipPath id="clip-path"><path id="패스_56203" d="M29.07 13.465H16.013v5.414h7.516c-.7 3.44-3.631 5.414-7.516 5.414a8.28 8.28 0 110-16.561 8.1 8.1 0 015.159 1.848l4.076-4.08a14 14 0 10-9.236 24.522c7.006 0 13.376-5.1 13.376-14.013a11.625 11.625 0 00-.318-2.544z" transform="translate(-2 -2)"/></clipPath><style>.cls-2{clip-path:url(#clip-path)}</style></defs><g id="icon-sns-google" transform="translate(-545 -5350.5)"><path id="area" fill="none" d="M0 0h30v30H0z" transform="translate(545 5350.5)"/><g id="Google__G__Logo" transform="translate(544 5349.5)"><g id="그룹_103" class="cls-2" transform="translate(2 2)"><path id="패스_56202" fill="#fbbc05" d="M0 27.561V11l10.828 8.28z" transform="translate(-1.274 -5.267)"/></g><g id="그룹_104" class="cls-2" transform="translate(2 2)"><path id="패스_56204" fill="#ea4335" d="M0 7.006l10.828 8.28 4.459-3.886 15.286-2.483V0H0z" transform="translate(-1.274 -1.274)"/></g><g id="그룹_105" class="cls-2" transform="translate(2 2)"><path id="패스_56206" fill="#34a853" d="M0 23.567l19.108-14.65 5.032.637L30.573 0v30.573H0z" transform="translate(-1.274 -1.274)"/></g><g id="그룹_106" class="cls-2" transform="translate(2 2)"><path id="패스_56208" fill="#4285f4" d="M35.293 34.567L15.548 19.28 13 17.369 35.293 11z" transform="translate(-5.994 -5.267)"/></g></g></g></svg>