<svg xmlns="http://www.w3.org/2000/svg" width="40" height="40" viewBox="0 0 40 40"><defs><style>.cls-2{fill:#089892}</style></defs><g id="main-quick-icon-06" transform="translate(-881 -5934)"><path id="사각형_27058" data-name="사각형 27058" transform="translate(881 5934)" fill="none" d="M0 0h40v40H0z"/><g id="그룹_289" data-name="그룹 289" transform="translate(884.2 5937.199)"><g id="그룹_288" data-name="그룹 288" transform="translate(.124 15.778)"><path id="패스_56362" data-name="패스 56362" class="cls-2" d="M4.529 18.835l-1.38-1.377-.586.781a8.247 8.247 0 00.776 10.785l1.4 1.4.584-.84a8.84 8.84 0 00-.794-10.749z" transform="translate(-.915 -17.458)"/><path id="패스_56363" data-name="패스 56363" class="cls-2" d="M16.477 30.75a8.389 8.389 0 00-5.7-2.227h-.258a8.473 8.473 0 00-4.781 1.473l-.819.579 1.391 1.391a8.21 8.21 0 0010.793.776l.774-.586z" transform="translate(-.895 -17.401)"/></g><path id="패스_56364" data-name="패스 56364" d="M.166 31.941l.943.941 11.4-11.4.214.124a3.683 3.683 0 002.2.484l.229-.022.094.209a3.621 3.621 0 003.3 2.135 3.659 3.659 0 002.118-.683l.186-.134.187.134a3.615 3.615 0 005.413-1.452l.095-.208.229.022a4.072 4.072 0 00.733 0 3.614 3.614 0 003.231-3.962l-.022-.229.21-.094a3.693 3.693 0 00.632-.365 3.618 3.618 0 00.818-5.048l-.134-.187.134-.186a3.548 3.548 0 00.364-.633 3.615 3.615 0 00-1.816-4.78l-.21-.095.022-.228a3.577 3.577 0 00.02-.376 3.625 3.625 0 00-3.63-3.608 3.5 3.5 0 00-.359.018l-.229.023-.095-.21A3.621 3.621 0 0021.025.683l-.181.132-.185-.134A3.656 3.656 0 0018.537 0a3.619 3.619 0 00-3.3 2.134l-.094.21-.228-.023a3.508 3.508 0 00-.735 0 3.615 3.615 0 00-3.231 3.962l.022.229-.21.095a3.615 3.615 0 00-1.449 5.413l.133.186-.133.186a3.615 3.615 0 001.449 5.415l.21.094-.022.229a3.626 3.626 0 00.487 2.2l.125.214zm12.263-14.278l.294-.769-.813-.129a2.285 2.285 0 01-1.082-4.041l.639-.52-.64-.518a2.287 2.287 0 011.084-4.041l.812-.13-.294-.767a2.288 2.288 0 012.958-2.959l.768.294.128-.813a2.286 2.286 0 014.041-1.083l.519.639.519-.64a2.273 2.273 0 011.438-.829 2.36 2.36 0 01.353-.027 2.3 2.3 0 012.257 1.937l.128.813.769-.3a2.29 2.29 0 012.959 2.96l-.3.769.814.129a2.286 2.286 0 011.081 4.041l-.64.518.641.52a2.287 2.287 0 01-1.083 4.041l-.813.128.294.769a2.285 2.285 0 01-2.96 2.958l-.768-.29-.129.813a2.286 2.286 0 01-4.042 1.082l-.518-.64-.519.641a2.272 2.272 0 01-1.431.826 2.244 2.244 0 01-.353.028 2.3 2.3 0 01-2.257-1.938l-.128-.816-.768.3a2.289 2.289 0 01-2.958-2.957z" transform="translate(-.166 .001)"/><path id="패스_56365" data-name="패스 56365" d="M15.6 13.532a2.582 2.582 0 001.924 3.106l.2.046.045.2a2.58 2.58 0 003.877 1.614l.17-.1.167.1a2.59 2.59 0 001.369.4 2.583 2.583 0 002.506-1.998l.045-.2.2-.045a2.592 2.592 0 00.779-.321 2.585 2.585 0 00.835-3.556l-.1-.169.1-.169a2.585 2.585 0 00-1.6-3.884l-.195-.045-.046-.2A2.582 2.582 0 0021.995 6.7l-.17.1-.167-.1a2.578 2.578 0 00-3.884 1.6l-.046.2-.2.045a2.583 2.583 0 00-1.614 3.877l.1.168-.1.168a2.579 2.579 0 00-.314.774zm2.418-.937l-.642-.519a1.3 1.3 0 01-.4-1.492 1.277 1.277 0 011.2-.774 1.25 1.25 0 01.143.008l.818.087-.083-.821a1.292 1.292 0 01.771-1.34 1.213 1.213 0 01.467-.094 1.326 1.326 0 011.024.5l.517.641.52-.64a1.328 1.328 0 011.015-.5 1.2 1.2 0 01.472.1A1.291 1.291 0 0124.6 9.1l-.087.82.82-.085a1.029 1.029 0 01.12-.007h.047a1.264 1.264 0 01.766 2.269l-.64.518.642.52a1.294 1.294 0 01.4 1.491 1.273 1.273 0 01-1.2.774c-.049 0-.1 0-.144-.008L24.5 15.3l.085.822a1.294 1.294 0 01-.772 1.339 1.216 1.216 0 01-.467.094 1.326 1.326 0 01-1.024-.5l-.518-.641-.52.64a1.326 1.326 0 01-1.013.5 1.232 1.232 0 01-.472-.1 1.3 1.3 0 01-.768-1.344l.088-.82-.819.085a1.392 1.392 0 01-.14.007h-.03a1.261 1.261 0 01-1.166-.776 1.3 1.3 0 01.408-1.493z" transform="translate(-1.137 -.398)"/><path id="사각형_149" data-name="사각형 149" transform="rotate(-45 24.382 -17.171)" d="M0 0h1.974v1.974H0z"/></g></g></svg>