<svg xmlns="http://www.w3.org/2000/svg" width="40" height="40" viewBox="0 0 40 40"><path data-name="사각형 27053" fill="none" d="M0 0h40v40H0z"/><g data-name="그룹 290"><path data-name="패스 56366" d="M18.686 6.077a3.191 3.191 0 00-2.628-3.133 6.572 6.572 0 00-.71-.045 1.275 1.275 0 10-.012 1.286 5.076 5.076 0 01.684.064 1.909 1.909 0 011.39 1.828l.032 8.96h1.279z"/><path data-name="패스 56367" d="M3.372 6.077a1.913 1.913 0 011.42-1.842 4.975 4.975 0 01.684-.064 1.281 1.281 0 10-.013-1.279 6.559 6.559 0 00-.71.045 3.189 3.189 0 00-2.661 3.14v8.953h1.279z"/><path data-name="패스 56368" d="M12.326 25.907V23.8c.217-.045.428-.1.639-.154a8.365 8.365 0 006.4-7.917v-.691h-2.558v.71a5.727 5.727 0 01-4.125 5.385 6.3 6.3 0 01-1.919.3h-.032a6.483 6.483 0 01-1.95-.3c-2.4-.761-4.765-2.884-4.765-5.385v-.71H1.454v.691a8.365 8.365 0 006.4 7.917c.211.058.422.109.639.154v2.11c0 1.343.576 1.918 1.279 1.918h1.279c.699-.002 1.275-.578 1.275-1.921z" fill="#089892" stroke="#089892"/><path data-name="패스 56369" d="M35.354 19.575v-2.456a5.444 5.444 0 10-10.872-.173l.037.007h-.037v12.6c0 4.023-3.012 7.3-6.715 7.3s-6.715-3.275-6.715-7.3V27.82H9.773v1.733c0 4.727 3.587 8.576 7.994 8.576s7.994-3.849 7.994-8.576V16.985a4.747 4.747 0 011.273-3.114 3.97 3.97 0 012.884-1.286 4.364 4.364 0 014.157 4.534v2.456a3.2 3.2 0 101.279 0zm-.64 5.052a1.918 1.918 0 111.919-1.918 1.919 1.919 0 01-1.924 1.918z"/></g></svg>