<svg xmlns="http://www.w3.org/2000/svg" width="40" height="40" viewBox="0 0 40 40"><defs><style>.cls-1{fill:none}</style></defs><g id="main-quick-icon-02" transform="translate(11.248 9)"><path id="사각형_27054" data-name="사각형 27054" class="cls-1" transform="translate(-11.248 -9)" d="M0 0h40v40H0z"/><g id="그룹_25794" data-name="그룹 25794" transform="translate(-8.048 -5.8)"><path id="패스_56338" data-name="패스 56338" class="cls-1" d="M19.175 20.9s-2.579 1.747-3.328 3.661-1.664 5.491 2.746 11.316S28.91 46.029 33.32 45.364a8.553 8.553 0 006.157-3.994v-.915L34.485 35.3a5.04 5.04 0 00-3.328 1.747c-1.414 1.664-2.663 1.664-3.827.666s-5.575-6.157-5.575-6.157a5.681 5.681 0 011.581-2.5c1.165-1 2.247-1.83 1.415-3.495S19.175 20.9 19.175 20.9z" transform="translate(-8.479 -16.371)"/><path id="패스_37559" data-name="패스 37559" d="M130.878 125.033l-4.889-4.871a2.844 2.844 0 00-4.023 0l-2.8 2.8a.617.617 0 01-.792.07 32.285 32.285 0 01-7.542-7.4.609.609 0 01.061-.792l2.87-2.87a2.844 2.844 0 000-4.019l-4.889-4.889a2.914 2.914 0 00-4.027 0l-1.548 1.548a8.7 8.7 0 00-2.157 8.872 26.1 26.1 0 003.184 6.454 33.835 33.835 0 009.768 9.594 24.9 24.9 0 007.237 3.218 8.377 8.377 0 002.018.244 8.8 8.8 0 006.2-2.61l1.331-1.331a2.844 2.844 0 00-.002-4.018zm-1.232 2.832l.009-.026-1.331 1.331a6.959 6.959 0 01-6.567 1.879 23.124 23.124 0 01-6.715-3.01 32.161 32.161 0 01-9.255-9.073 24.353 24.353 0 01-2.975-6.019 6.959 6.959 0 011.74-7.107l1.548-1.54a1.1 1.1 0 011.562 0l4.889 4.889a1.1 1.1 0 010 1.562l-2.871 2.871a2.34 2.34 0 00-.244 3.044 34.266 34.266 0 007.959 7.811 2.357 2.357 0 003.01-.261l2.775-2.818a1.1 1.1 0 011.562 0l4.9 4.906a1.1 1.1 0 01.004 1.562z" transform="translate(-100.712 -99.23)"/><path id="합치기_3" data-name="합치기 3" d="M4 11.2v-4H0V4h4V0h3.2v4h4v3.2h-4v4z" transform="translate(22.401)" fill="#089892"/></g></g></svg>