<svg xmlns="http://www.w3.org/2000/svg" width="40" height="40" viewBox="0 0 40 40"><defs><style>.cls-2{fill:#089892}</style></defs><g id="main-quick-icon-03" transform="translate(1.998 3.993)"><path id="사각형_27055" data-name="사각형 27055" transform="translate(-1.998 -3.993)" fill="none" d="M0 0h40v40H0z"/><g id="그룹_25795" data-name="그룹 25795" transform="translate(-.398 -2.394)"><g id="그룹_282" data-name="그룹 282"><path id="패스_56352" data-name="패스 56352" d="M34.692 12.307H14.373a3.247 3.247 0 00-3.234 3.234v12.775a3.249 3.249 0 003.235 3.236h14.239a.354.354 0 01.282.137l4.6 5.821a1.06 1.06 0 00.829.408 1.031 1.031 0 00.353-.062 1.046 1.046 0 00.712-1v-5.38a3.256 3.256 0 002.536-3.159V15.541a3.248 3.248 0 00-3.233-3.234zM14.374 30.22a1.913 1.913 0 01-1.9-1.9V15.542a1.913 1.913 0 011.9-1.9h20.315a1.912 1.912 0 011.9 1.9v12.774a1.917 1.917 0 01-1.877 1.9.668.668 0 00-.658.666v5.188l-4.114-5.206a1.677 1.677 0 00-1.325-.644zm14.245.133z" transform="translate(-1.248 -1.383)"/><path id="패스_56353" data-name="패스 56353" d="M7.974 15.613l-.115.019a1.541 1.541 0 00-.892.56l-3.424 4.336v-4.263a.667.667 0 00-.657-.666 1.585 1.585 0 01-1.552-1.57V2.909A1.574 1.574 0 012.9 1.341h17.689a1.574 1.574 0 011.569 1.568v5.959a.667.667 0 001.333 0V2.909a2.911 2.911 0 00-2.9-2.9H2.905A2.91 2.91 0 000 2.909V14.03a2.931 2.931 0 002.207 2.814v4.614a1 1 0 00.679.955 1.021 1.021 0 00.337.059 1 1 0 00.788-.386l4-5.068a.22.22 0 01.147-.084.666.666 0 00-.187-1.32z" transform="translate(-.002 -.007)"/></g><path id="패스_56354" data-name="패스 56354" class="cls-2" d="M20.458 23.177a1.8 1.8 0 11-1.8-1.8 1.8 1.8 0 011.8 1.8z" transform="translate(-1.888 -2.398)"/><path id="패스_56355" data-name="패스 56355" class="cls-2" d="M27.428 23.177a1.8 1.8 0 11-1.8-1.8 1.8 1.8 0 011.8 1.8z" transform="translate(-2.668 -2.398)"/><path id="패스_56356" data-name="패스 56356" class="cls-2" d="M34.4 23.177a1.8 1.8 0 11-1.8-1.8 1.8 1.8 0 011.8 1.8z" transform="translate(-3.447 -2.398)"/></g></g></svg>