<svg xmlns="http://www.w3.org/2000/svg" width="40" height="40" viewBox="0 0 40 40"><path data-name="사각형 27057" fill="none" d="M0 0h40v40H0z"/><g data-name="그룹 287"><g data-name="그룹 286"><g data-name="그룹 285"><path data-name="패스 56359" d="M32.36 4.902h-6.6v1.38h5.907v30.823H8.58V6.282h5.906v-1.38H7.891a.691.691 0 00-.69.69v32.2a.692.692 0 00.69.691h24.47a.692.692 0 00.69-.691v-32.2a.691.691 0 00-.691-.69z"/></g><path data-name="사각형 145" d="M12.953 24.786H27.92v1.403H12.953z"/><path data-name="사각형 147" d="M16.929 16.29h7.016v1.403h-7.016z"/><path data-name="사각형 146" d="M12.953 29.401H27.92v1.403H12.953z"/><path data-name="사각형 148" d="M21.138 13.484V20.5h-1.403v-7.016z"/></g><path data-name="패스 56361" d="M22.938 3.086a3.407 3.407 0 00-5.628 0h-4.1v5.651h13.829V3.086z" fill="#089892"/></g></svg>